<svg xmlns="http://www.w3.org/2000/svg" version="1.1" xmlns:xlink="http://www.w3.org/1999/xlink" xmlns:svgjs="http://svgjs.com/svgjs" width="1440" height="560" preserveAspectRatio="none" viewBox="0 0 1440 560"><g mask="url(&quot;#SvgjsMask1000&quot;)" fill="none"><rect width="1440" height="560" x="0" y="0" fill="#0e2a47"></rect><path d="M978.154506546337 482.4664636030795L1056.3853819115757 442.60584166826357 1016.5247599767597 364.3749663030249 938.2938846115211 404.23558823784083z" fill="rgba(28, 83, 142, 0.4)" class="triangle-float1"></path><path d="M814.0932188585585 224.48048023883857L706.6837329917564 294.23301594218054 776.4362686950984 401.6425018089826 883.8457545619005 331.88996610564067z" fill="rgba(28, 83, 142, 0.4)" class="triangle-float2"></path><path d="M1133.36,237.564C1154.311,237.434,1179.057,238.295,1189.322,220.031C1199.49,201.939,1186.749,180.768,1174.827,163.781C1165.046,149.846,1150.355,141.308,1133.36,140.299C1114.082,139.155,1093.578,142.553,1082.389,158.293C1069.4,176.565,1064.056,201.878,1076.181,220.734C1087.698,238.646,1112.065,237.696,1133.36,237.564" fill="rgba(28, 83, 142, 0.4)" class="triangle-float2"></path><path d="M996.267,498.104C1031.657,499.396,1060.773,471.902,1076.815,440.33C1091.375,411.675,1088.68,377.54,1071.249,350.535C1055.217,325.697,1025.826,316.048,996.267,315.538C965.576,315.008,932.358,321.486,916.661,347.865C900.701,374.687,910.69,407.218,925.303,434.797C941.21,464.818,962.315,496.864,996.267,498.104" fill="rgba(28, 83, 142, 0.4)" class="triangle-float2"></path><path d="M1277.2809049715947 355.0751619823165L1176.1547703354122 303.42736779693934 1179.6189658977958 402.62894934290875z" fill="rgba(28, 83, 142, 0.4)" class="triangle-float1"></path><path d="M1190.6768312763727 192.61076464443997L1278.8084823053043 214.58445318275562 1300.78217084362 126.45280215382394 1212.6505198146883 104.47911361550828z" fill="rgba(28, 83, 142, 0.4)" class="triangle-float3"></path></g><defs><mask id="SvgjsMask1000"><rect width="1440" height="560" fill="#ffffff"></rect></mask><style>
            @keyframes float1 {
                0%{transform: translate(0, 0)}
                50%{transform: translate(-10px, 0)}
                100%{transform: translate(0, 0)}
            }

            .triangle-float1 {
                animation: float1 5s infinite;
            }

            @keyframes float2 {
                0%{transform: translate(0, 0)}
                50%{transform: translate(-5px, -5px)}
                100%{transform: translate(0, 0)}
            }

            .triangle-float2 {
                animation: float2 4s infinite;
            }

            @keyframes float3 {
                0%{transform: translate(0, 0)}
                50%{transform: translate(0, -10px)}
                100%{transform: translate(0, 0)}
            }

            .triangle-float3 {
                animation: float3 6s infinite;
            }
        </style></defs></svg>